<mxfile host="app.diagrams.net" agent="Mozilla/5.0 (Windows NT 10.0; Win64; x64) AppleWebKit/537.36 (KHTML, like Gecko) Chrome/131.0.0.0 Safari/537.36" version="25.0.3">
  <diagram name="Page-1" id="pgTasB8orITotWOQNTTV">
    <mxGraphModel dx="1274" dy="762" grid="1" gridSize="10" guides="1" tooltips="1" connect="1" arrows="1" fold="1" page="1" pageScale="1" pageWidth="850" pageHeight="1100" math="0" shadow="0">
      <root>
        <mxCell id="0" />
        <mxCell id="1" parent="0" />
        <mxCell id="ACYpWsiew8HTyCAto30m-5" value="Site Admin" style="rounded=1;whiteSpace=wrap;html=1;fontFamily=Arial;" parent="1" vertex="1">
          <mxGeometry x="-240" y="210" width="120" height="60" as="geometry" />
        </mxCell>
        <mxCell id="ACYpWsiew8HTyCAto30m-6" value="Default UserGroups" style="text;html=1;align=left;verticalAlign=middle;whiteSpace=wrap;rounded=0;fontFamily=Arial;" parent="1" vertex="1">
          <mxGeometry x="-240" y="170" width="60" height="30" as="geometry" />
        </mxCell>
        <mxCell id="ACYpWsiew8HTyCAto30m-7" value="Editor" style="whiteSpace=wrap;html=1;fontFamily=Arial;rounded=1;" parent="1" vertex="1">
          <mxGeometry x="-240" y="360" width="120" height="60" as="geometry" />
        </mxCell>
        <mxCell id="ACYpWsiew8HTyCAto30m-9" value="Created when new rsrv is created" style="text;html=1;align=left;verticalAlign=middle;whiteSpace=wrap;rounded=0;fontFamily=Arial;" parent="1" vertex="1">
          <mxGeometry x="-240" y="320" width="120" height="30" as="geometry" />
        </mxCell>
        <mxCell id="ACYpWsiew8HTyCAto30m-10" value="Participant" style="whiteSpace=wrap;html=1;fontFamily=Arial;rounded=1;" parent="1" vertex="1">
          <mxGeometry x="-240" y="430" width="120" height="60" as="geometry" />
        </mxCell>
        <mxCell id="ACYpWsiew8HTyCAto30m-11" value="Guests" style="whiteSpace=wrap;html=1;fontFamily=Arial;rounded=1;" parent="1" vertex="1">
          <mxGeometry x="-240" y="500" width="120" height="60" as="geometry" />
        </mxCell>
        <mxCell id="VzamcDMxcFA_msxcAN1_-4" value="" style="edgeStyle=orthogonalEdgeStyle;rounded=0;orthogonalLoop=1;jettySize=auto;html=1;" edge="1" parent="1" source="VzamcDMxcFA_msxcAN1_-1" target="VzamcDMxcFA_msxcAN1_-3">
          <mxGeometry relative="1" as="geometry" />
        </mxCell>
        <mxCell id="VzamcDMxcFA_msxcAN1_-1" value="find user" style="rounded=1;whiteSpace=wrap;html=1;" vertex="1" parent="1">
          <mxGeometry x="40" y="210" width="120" height="60" as="geometry" />
        </mxCell>
        <mxCell id="VzamcDMxcFA_msxcAN1_-2" value="Add user to Group" style="text;html=1;align=left;verticalAlign=middle;whiteSpace=wrap;rounded=0;fontFamily=Arial;" vertex="1" parent="1">
          <mxGeometry x="40" y="170" width="60" height="30" as="geometry" />
        </mxCell>
        <mxCell id="VzamcDMxcFA_msxcAN1_-3" value="add userID to array" style="rounded=1;whiteSpace=wrap;html=1;" vertex="1" parent="1">
          <mxGeometry x="40" y="320" width="120" height="60" as="geometry" />
        </mxCell>
        <mxCell id="VzamcDMxcFA_msxcAN1_-5" value="check operate rsrvid in groupid and user" style="rounded=1;whiteSpace=wrap;html=1;" vertex="1" parent="1">
          <mxGeometry x="240" y="210" width="120" height="60" as="geometry" />
        </mxCell>
        <mxCell id="VzamcDMxcFA_msxcAN1_-6" value="check permission" style="text;html=1;align=left;verticalAlign=middle;whiteSpace=wrap;rounded=0;fontFamily=Arial;" vertex="1" parent="1">
          <mxGeometry x="240" y="170" width="60" height="30" as="geometry" />
        </mxCell>
      </root>
    </mxGraphModel>
  </diagram>
</mxfile>
